<svg viewBox="0 0 1600 1110" role="img" aria-label="GiftDapp flow: a creator funds a prize wheel through the dapp, the RigelGift contract escrows the tokens, participants spin with spinAndClaim and the contract pays the prize." class="dg" xmlns="http://www.w3.org/2000/svg" style="fill:var(--dg-ink)">
<defs><marker id="ah-rigel-protocol-giftdapp-01" viewBox="0 0 10 10" refX="9" refY="5" markerWidth="8" markerHeight="8" orient="auto-start-reverse"><path d="M0,0 L10,5 L0,10 z" style="fill:var(--dg-ink2)"/></marker></defs>
<rect width="1600" height="1110" style="fill:var(--dg-bg)"/>
<rect x="900" y="78" width="685" height="1022" rx="14" stroke-width="1.5" stroke-dasharray="8 5" style="fill:var(--dg-zone-f);stroke:var(--dg-zone-s)"/>
<text x="918" y="100" font-size="13" font-weight="bold" style="fill:var(--dg-zone-t)">on-chain  (BSC / Polygon)</text>
<text x="135" y="128" font-size="13" text-anchor="middle" style="fill:var(--dg-muted)">Users (wallet)</text>
<text x="425" y="128" font-size="13" text-anchor="middle" style="fill:var(--dg-muted)">Gift dapp  (React, web3.js)</text>
<text x="735" y="128" font-size="13" text-anchor="middle" style="fill:var(--dg-muted)">Gift API  (GraphQL)</text>
<text x="1085" y="128" font-size="13" text-anchor="middle" style="fill:var(--dg-muted)">RigelGift.sol</text>
<text x="1425" y="128" font-size="13" text-anchor="middle" style="fill:var(--dg-muted)">ERC-20s  (RGP + reward tokens)</text>
<text x="30" y="165" font-size="14" font-weight="bold">A. create a campaign</text>
<rect x="30" y="185" width="210" height="100" rx="6" stroke-width="1.2" style="fill:var(--dg-user-f);stroke:var(--dg-user-s)"/>
<text x="135" y="208.5" text-anchor="middle" font-weight="bold" font-size="13">Creator</text>
<text x="135" y="224.5" text-anchor="middle" font-size="12">picks reward tokens (max 2)</text>
<text x="135" y="239.5" text-anchor="middle" font-size="12">builds the wheel: prize / text</text>
<text x="135" y="254.5" text-anchor="middle" font-size="12">odds: 1 in 10 … 1 in 250</text>
<text x="135" y="269.5" text-anchor="middle" font-size="12">claims/user, retry hrs, weeks</text>
<circle cx="30" cy="185" r="12" style="fill:var(--dg-ink2)"/><text x="30" y="189" text-anchor="middle" font-size="12" font-weight="bold" style="fill:var(--dg-bg)">1</text>
<rect x="300" y="180" width="250" height="110" rx="6" stroke-width="1.2" style="fill:var(--dg-web-f);stroke:var(--dg-web-s)"/>
<text x="425" y="208.5" text-anchor="middle" font-weight="bold" font-size="13">Setup wizard</text>
<text x="425" y="224.5" text-anchor="middle" font-size="12">decimals() → BigNumber</text>
<text x="425" y="239.5" text-anchor="middle" font-size="12">balance check before approve</text>
<text x="425" y="254.5" text-anchor="middle" font-size="12">abi.encode rewards[] + slots[]</text>
<text x="425" y="269.5" text-anchor="middle" font-size="12">slot: (textIdx, weight, token, amt)</text>
<circle cx="300" cy="180" r="12" style="fill:var(--dg-ink2)"/><text x="300" y="184" text-anchor="middle" font-size="12" font-weight="bold" style="fill:var(--dg-bg)">2</text>
<polyline points="240,235 300,235" stroke-width="1.3" marker-end="url(#ah-rigel-protocol-giftdapp-01)" style="fill:none;stroke:var(--dg-ink2)"/>
<text x="270" y="228" text-anchor="middle" font-size="11.5" class="lbl" style="fill:var(--dg-ink2)">config</text>
<rect x="1290" y="172" width="270" height="66" rx="6" stroke-width="1.2" style="fill:var(--dg-tok-f);stroke:var(--dg-tok-s)"/>
<text x="1425" y="201" text-anchor="middle" font-weight="bold" font-size="13">approve(gift, amount)</text>
<text x="1425" y="217" text-anchor="middle" font-size="12">RGP: 10 fee · each token: its budget</text>
<circle cx="1290" cy="172" r="12" style="fill:var(--dg-ink2)"/><text x="1290" y="176" text-anchor="middle" font-size="12" font-weight="bold" style="fill:var(--dg-bg)">3</text>
<polyline points="550,200 1290,200" stroke-width="1.3" marker-end="url(#ah-rigel-protocol-giftdapp-01)" style="fill:none;stroke:var(--dg-ink2)"/>
<text x="735" y="193" text-anchor="middle" font-size="11.5" class="lbl" style="fill:var(--dg-ink2)">approve × (1 + n)</text>
<rect x="935" y="290" width="300" height="118" rx="6" stroke-width="1.2" style="fill:var(--dg-chain-f);stroke:var(--dg-chain-s)"/>
<text x="1085" y="322.5" text-anchor="middle" font-weight="bold" font-size="13">createRewardProject()</text>
<text x="1085" y="338.5" text-anchor="middle" font-size="12">10 RGP fee → treasury</text>
<text x="1085" y="353.5" text-anchor="middle" font-size="12">reward budgets → escrow (contract)</text>
<text x="1085" y="368.5" text-anchor="middle" font-size="12">store slots + running weight totals</text>
<text x="1085" y="383.5" text-anchor="middle" font-size="12">emit RewardProjectCreate(owner, id)</text>
<circle cx="935" cy="290" r="12" style="fill:var(--dg-ink2)"/><text x="935" y="294" text-anchor="middle" font-size="12" font-weight="bold" style="fill:var(--dg-bg)">4</text>
<polyline points="550,262 790,262 790,330 935,330" stroke-width="1.3" marker-end="url(#ah-rigel-protocol-giftdapp-01)" style="fill:none;stroke:var(--dg-ink2)"/>
<text x="670" y="255" text-anchor="middle" font-size="11.5" class="lbl" style="fill:var(--dg-ink2)">createRewardProject(cfg)</text>
<polyline points="1235,330 1425,330 1425,238" stroke-width="1.3" marker-end="url(#ah-rigel-protocol-giftdapp-01)" style="fill:none;stroke:var(--dg-ink2)"/>
<text x="1330" y="323" text-anchor="middle" font-size="11.5" class="lbl" style="fill:var(--dg-ink2)">transferFrom × (1 + n)</text>
<rect x="935" y="422" width="300" height="40" rx="0" stroke-width="1.2" style="fill:var(--dg-note-f);stroke:var(--dg-note-s)"/>
<text x="1085" y="445.5" text-anchor="middle" font-size="12">one tx: fee + escrow + slots, or revert</text>
<rect x="300" y="385" width="250" height="70" rx="6" stroke-width="1.2" style="fill:var(--dg-web-f);stroke:var(--dg-web-s)"/>
<text x="425" y="408.5" text-anchor="middle" font-weight="bold" font-size="13">Read projectIndex from receipt</text>
<text x="425" y="424.5" text-anchor="middle" font-size="12">from the event log, not the counter</text>
<text x="425" y="439.5" text-anchor="middle" font-size="12">(another create could race it)</text>
<circle cx="300" cy="385" r="12" style="fill:var(--dg-ink2)"/><text x="300" y="389" text-anchor="middle" font-size="12" font-weight="bold" style="fill:var(--dg-bg)">5</text>
<polyline points="935,398 550,398" stroke-width="1.3" stroke-dasharray="6 4" marker-end="url(#ah-rigel-protocol-giftdapp-01)" style="fill:none;stroke:var(--dg-ink2)"/>
<text x="700" y="391" text-anchor="middle" font-size="11.5" class="lbl" style="fill:var(--dg-ink2)">RewardProjectCreate(id)</text>
<rect x="610" y="440" width="250" height="92" rx="6" stroke-width="1.2" style="fill:var(--dg-api-f);stroke:var(--dg-api-s)"/>
<text x="735" y="467" text-anchor="middle" font-weight="bold" font-size="13">createReward mutation</text>
<text x="735" y="483" text-anchor="middle" font-size="12">title, description, social tasks</text>
<text x="735" y="498" text-anchor="middle" font-size="12">labels for no-prize slots</text>
<text x="735" y="513" text-anchor="middle" font-size="12">key: networkId + projectIndex</text>
<polyline points="550,448 610,448" stroke-width="1.3" marker-end="url(#ah-rigel-protocol-giftdapp-01)" style="fill:none;stroke:var(--dg-ink2)"/>
<rect x="300" y="478" width="250" height="50" rx="0" stroke-width="1.2" style="fill:var(--dg-note-f);stroke:var(--dg-note-s)"/>
<text x="425" y="499" text-anchor="middle" font-size="12">share link:</text>
<text x="425" y="514" text-anchor="middle" font-size="12">/app/events/v/:chainId/:eventId?ref=…</text>
<polyline points="610,505 550,505" stroke-width="1.3" stroke-dasharray="6 4" marker-end="url(#ah-rigel-protocol-giftdapp-01)" style="fill:none;stroke:var(--dg-ink2)"/>
<text x="580" y="498" text-anchor="middle" font-size="11.5" class="lbl" style="fill:var(--dg-ink2)">eventId</text>
<line x1="20" y1="560" x2="890" y2="560" stroke-dasharray="4 4" style="stroke:var(--dg-rule)"/>
<line x1="910" y1="560" x2="1575" y2="560" stroke-dasharray="4 4" style="stroke:var(--dg-zone-s)"/>
<text x="30" y="590" font-size="14" font-weight="bold">B. spin &amp; claim</text>
<rect x="30" y="605" width="210" height="60" rx="6" stroke-width="1.2" style="fill:var(--dg-user-f);stroke:var(--dg-user-s)"/>
<text x="135" y="623.5" text-anchor="middle" font-weight="bold" font-size="13">Participant</text>
<text x="135" y="639.5" text-anchor="middle" font-size="12">opens the share link</text>
<text x="135" y="654.5" text-anchor="middle" font-size="12">(maybe with someone’s ?ref=)</text>
<circle cx="30" cy="605" r="12" style="fill:var(--dg-ink2)"/><text x="30" y="609" text-anchor="middle" font-size="12" font-weight="bold" style="fill:var(--dg-bg)">6</text>
<rect x="300" y="600" width="250" height="110" rx="6" stroke-width="1.2" style="fill:var(--dg-web-f);stroke:var(--dg-web-s)"/>
<text x="425" y="628.5" text-anchor="middle" font-weight="bold" font-size="13">Event page</text>
<text x="425" y="644.5" text-anchor="middle" font-size="12">meta + referrer wallet ← API</text>
<text x="425" y="659.5" text-anchor="middle" font-size="12">getProjectTickers() ← chain</text>
<text x="425" y="674.5" text-anchor="middle" font-size="12">projectClaims(me) ← chain</text>
<text x="425" y="689.5" text-anchor="middle" font-size="12">text labels merged by slot index</text>
<circle cx="300" cy="600" r="12" style="fill:var(--dg-ink2)"/><text x="300" y="604" text-anchor="middle" font-size="12" font-weight="bold" style="fill:var(--dg-bg)">7</text>
<polyline points="240,635 300,635" stroke-width="1.3" marker-end="url(#ah-rigel-protocol-giftdapp-01)" style="fill:none;stroke:var(--dg-ink2)"/>
<rect x="935" y="600" width="300" height="44" rx="6" stroke-width="1.2" style="fill:var(--dg-chain-f);stroke:var(--dg-chain-s)"/>
<text x="1085" y="625.5" text-anchor="middle" font-size="12">view: getProjectTickers · projectClaims</text>
<polyline points="520,600 520,582 1085,582 1085,600" stroke-width="1.3" stroke-dasharray="6 4" marker-end="url(#ah-rigel-protocol-giftdapp-01)" style="fill:none;stroke:var(--dg-ink2)"/>
<text x="800" y="576" text-anchor="middle" font-size="11.5" class="lbl" style="fill:var(--dg-ink2)">reads (view calls)</text>
<rect x="610" y="600" width="250" height="90" rx="6" stroke-width="1.2" style="fill:var(--dg-api-f);stroke:var(--dg-api-s)"/>
<text x="735" y="626" text-anchor="middle" font-weight="bold" font-size="13">Event meta + social checks</text>
<text x="735" y="642" text-anchor="middle" font-size="12">getRewards · referral id → wallet</text>
<text x="735" y="657" text-anchor="middle" font-size="12">linkSocialMedia: Twitter follow,</text>
<text x="735" y="672" text-anchor="middle" font-size="12">Telegram, Discord, Reddit, YouTube</text>
<circle cx="610" cy="600" r="12" style="fill:var(--dg-ink2)"/><text x="610" y="604" text-anchor="middle" font-size="12" font-weight="bold" style="fill:var(--dg-bg)">8</text>
<polyline points="610,622 550,622" stroke-width="1.3" stroke-dasharray="6 4" marker-end="url(#ah-rigel-protocol-giftdapp-01)" style="fill:none;stroke:var(--dg-ink2)"/>
<polyline points="550,668 610,668" stroke-width="1.3" marker-end="url(#ah-rigel-protocol-giftdapp-01)" style="fill:none;stroke:var(--dg-ink2)"/>
<text x="580" y="618" font-size="10.5" text-anchor="middle" style="fill:var(--dg-ink2)">meta</text>
<text x="580" y="664" font-size="10.5" text-anchor="middle" style="fill:var(--dg-ink2)">verify</text>
<rect x="935" y="662" width="300" height="74" rx="6" stroke-width="1.2" style="fill:var(--dg-chain-f);stroke:var(--dg-chain-s)"/>
<text x="1085" y="687.5" text-anchor="middle" font-weight="bold" font-size="13">buySpin(id, n)   (optional)</text>
<text x="1085" y="703.5" text-anchor="middle" font-size="12">max 5 per campaign, 10 RGP each</text>
<text x="1085" y="718.5" text-anchor="middle" font-size="12">fee → treasury, not the creator</text>
<circle cx="935" cy="662" r="12" style="fill:var(--dg-ink2)"/><text x="935" y="666" text-anchor="middle" font-size="12" font-weight="bold" style="fill:var(--dg-bg)">9</text>
<rect x="935" y="752" width="300" height="136" rx="6" stroke-width="1.2" style="fill:var(--dg-chain-f);stroke:var(--dg-chain-s)"/>
<text x="945" y="786" text-anchor="start" font-weight="bold" font-size="13">spinAndClaim(id, referrer)</text>
<text x="945" y="802" text-anchor="start" font-size="12">• weighted slot pick</text>
<text x="945" y="817" text-anchor="start" font-size="12">• check eligibility</text>
<text x="945" y="832" text-anchor="start" font-size="12">• spend spin: bought → referral → free</text>
<text x="945" y="847" text-anchor="start" font-size="12">• referrer gets +1 spin (max 5)</text>
<text x="945" y="862" text-anchor="start" font-size="12">• pay prize, emit RewardEarned</text>
<circle cx="935" cy="752" r="12" style="fill:var(--dg-ink2)"/><text x="935" y="756" text-anchor="middle" font-size="12" font-weight="bold" style="fill:var(--dg-bg)">10</text>
<rect x="300" y="770" width="250" height="110" rx="6" stroke-width="1.2" style="fill:var(--dg-web-f);stroke:var(--dg-web-s)"/>
<text x="425" y="798.5" text-anchor="middle" font-weight="bold" font-size="13">Wheel</text>
<text x="425" y="814.5" text-anchor="middle" font-size="12">starts spinning at the wallet prompt</text>
<text x="425" y="829.5" text-anchor="middle" font-size="12">stops on the ticker from the</text>
<text x="425" y="844.5" text-anchor="middle" font-size="12">RewardEarned log (UI never picks)</text>
<text x="425" y="859.5" text-anchor="middle" font-size="12">then logs stats to the API</text>
<circle cx="300" cy="770" r="12" style="fill:var(--dg-ink2)"/><text x="300" y="774" text-anchor="middle" font-size="12" font-weight="bold" style="fill:var(--dg-bg)">11</text>
<polyline points="430,710 430,770" stroke-width="1.3" marker-end="url(#ah-rigel-protocol-giftdapp-01)" style="fill:none;stroke:var(--dg-ink2)"/>
<text x="438" y="744" text-anchor="start" font-size="11.5" class="lbl" style="fill:var(--dg-ink2)">spin</text>
<polyline points="550,778 880,778 880,700 935,700" stroke-width="1.3" marker-end="url(#ah-rigel-protocol-giftdapp-01)" style="fill:none;stroke:var(--dg-ink2)"/>
<text x="715" y="771" text-anchor="middle" font-size="11.5" class="lbl" style="fill:var(--dg-ink2)">buySpin(id, n)</text>
<polyline points="550,800 935,800" stroke-width="1.3" marker-end="url(#ah-rigel-protocol-giftdapp-01)" style="fill:none;stroke:var(--dg-ink2)"/>
<text x="715" y="794" text-anchor="middle" font-size="11.5" class="lbl" style="fill:var(--dg-ink2)">spinAndClaim(id, referrer)</text>
<rect x="610" y="818" width="250" height="42" rx="6" stroke-width="1.2" style="fill:var(--dg-api-f);stroke:var(--dg-api-s)"/>
<text x="735" y="835" text-anchor="middle" font-size="12">addHashHistory · updateParticipant</text>
<text x="735" y="850" text-anchor="middle" font-size="12">(stats only, fire and forget)</text>
<polyline points="550,838 610,838" stroke-width="1.3" marker-end="url(#ah-rigel-protocol-giftdapp-01)" style="fill:none;stroke:var(--dg-ink2)"/>
<polyline points="935,872 550,872" stroke-width="1.3" stroke-dasharray="6 4" marker-end="url(#ah-rigel-protocol-giftdapp-01)" style="fill:none;stroke:var(--dg-ink2)"/>
<text x="715" y="889" text-anchor="middle" font-size="11.5" class="lbl" style="fill:var(--dg-ink2)">RewardEarned(ticker)</text>
<rect x="1290" y="682" width="270" height="40" rx="6" stroke-width="1.2" style="fill:var(--dg-tok-f);stroke:var(--dg-tok-s)"/>
<text x="1425" y="705.5" text-anchor="middle" font-size="12">n × 10 RGP → treasury</text>
<polyline points="1235,702 1290,702" stroke-width="1.3" marker-end="url(#ah-rigel-protocol-giftdapp-01)" style="fill:none;stroke:var(--dg-ink2)"/>
<rect x="1290" y="780" width="270" height="44" rx="6" stroke-width="1.2" style="fill:var(--dg-tok-f);stroke:var(--dg-tok-s)"/>
<text x="1425" y="805.5" text-anchor="middle" font-size="12">prize → participant wallet</text>
<polyline points="1235,802 1290,802" stroke-width="1.3" marker-end="url(#ah-rigel-protocol-giftdapp-01)" style="fill:none;stroke:var(--dg-ink2)"/>
<text x="1262" y="795" text-anchor="middle" font-size="11.5" class="lbl" style="fill:var(--dg-ink2)">transfer</text>
<rect x="1290" y="840" width="270" height="92" rx="0" stroke-width="1.2" style="fill:var(--dg-note-f);stroke:var(--dg-note-s)"/>
<text x="1425" y="867" text-anchor="middle" font-size="12">slot pick:</text>
<text x="1425" y="882" text-anchor="middle" font-size="12">r = ⌊rand × totalWeight⌋</text>
<text x="1425" y="897" text-anchor="middle" font-size="12">first slot with running total ≥ r</text>
<text x="1425" y="912" text-anchor="middle" font-size="12">rand = keccak(ts, sender, difficulty)</text>
<line x1="20" y1="950" x2="890" y2="950" stroke-dasharray="4 4" style="stroke:var(--dg-rule)"/>
<line x1="910" y1="950" x2="1575" y2="950" stroke-dasharray="4 4" style="stroke:var(--dg-zone-s)"/>
<text x="30" y="978" font-size="14" font-weight="bold">C. close</text>
<rect x="30" y="992" width="210" height="50" rx="6" stroke-width="1.2" style="fill:var(--dg-user-f);stroke:var(--dg-user-s)"/>
<text x="135" y="1013" text-anchor="middle" font-weight="bold" font-size="13">Creator</text>
<text x="135" y="1029" text-anchor="middle" font-size="12">after the active period</text>
<circle cx="30" cy="992" r="12" style="fill:var(--dg-ink2)"/><text x="30" y="996" text-anchor="middle" font-size="12" font-weight="bold" style="fill:var(--dg-bg)">12</text>
<rect x="935" y="985" width="300" height="64" rx="6" stroke-width="1.2" style="fill:var(--dg-chain-f);stroke:var(--dg-chain-s)"/>
<text x="1085" y="1005.5" text-anchor="middle" font-weight="bold" font-size="13">closeProjectWithdrawTokens(id)</text>
<text x="1085" y="1021.5" text-anchor="middle" font-size="12">mark inactive</text>
<text x="1085" y="1036.5" text-anchor="middle" font-size="12">leftover budget → creator</text>
<polyline points="240,1012 935,1012" stroke-width="1.3" marker-end="url(#ah-rigel-protocol-giftdapp-01)" style="fill:none;stroke:var(--dg-ink2)"/>
<text x="420" y="1005" text-anchor="middle" font-size="11.5" class="lbl" style="fill:var(--dg-ink2)">dashboard → close</text>
<rect x="1290" y="995" width="270" height="40" rx="6" stroke-width="1.2" style="fill:var(--dg-tok-f);stroke:var(--dg-tok-s)"/>
<text x="1425" y="1018.5" text-anchor="middle" font-size="12">balance → creator</text>
<polyline points="1235,1015 1290,1015" stroke-width="1.3" marker-end="url(#ah-rigel-protocol-giftdapp-01)" style="fill:none;stroke:var(--dg-ink2)"/>
<text x="30" y="1090" font-size="11.5" style="fill:var(--dg-muted)">solid = tx / call     dashed = event / read</text>
</svg>
