<svg viewBox="0 0 1600 965" role="img" aria-label="NST token flow: NSTToken mints 1 billion NST once to Distribution, which vests five allocations to the treasury wallet, the team wallet and the PublicSale contract. The treasury funds the SAFTFactory, which creates one SAFT clone per private investor." class="dg" xmlns="http://www.w3.org/2000/svg" style="fill:var(--dg-ink)">
<defs><marker id="ah-netzence-nst-01" viewBox="0 0 10 10" refX="9" refY="5" markerWidth="8" markerHeight="8" orient="auto-start-reverse"><path d="M0,0 L10,5 L0,10 z" style="fill:var(--dg-ink2)"/></marker></defs>
<rect width="1600" height="965" style="fill:var(--dg-bg)"/>
<text x="120" y="128" font-size="13" text-anchor="middle" style="fill:var(--dg-muted)">Admin roles</text>
<text x="370" y="128" font-size="13" text-anchor="middle" style="fill:var(--dg-muted)">NSTToken</text>
<text x="705" y="128" font-size="13" text-anchor="middle" style="fill:var(--dg-muted)">Distribution</text>
<text x="1050" y="128" font-size="13" text-anchor="middle" style="fill:var(--dg-muted)">Wallets and sale contracts</text>
<text x="1405" y="128" font-size="13" text-anchor="middle" style="fill:var(--dg-muted)">Holders</text>
<rect x="20" y="160" width="200" height="100" rx="6" stroke-width="1.2" style="fill:var(--dg-user-f);stroke:var(--dg-user-s)"/>
<text x="120" y="191" text-anchor="middle" font-weight="bold" font-size="13">Deployer / admin</text>
<text x="120" y="207" text-anchor="middle" font-size="12">ADMIN, UPGRADER, PAUSER,</text>
<text x="120" y="222" text-anchor="middle" font-size="12">OPERATOR, EMERGENCY</text>
<text x="120" y="237" text-anchor="middle" font-size="12">(one key on testnet)</text>
<circle cx="20" cy="160" r="12" style="fill:var(--dg-ink2)"/><text x="20" y="164" text-anchor="middle" font-size="12" font-weight="bold" style="fill:var(--dg-bg)">1</text>
<rect x="20" y="290" width="200" height="92" rx="0" stroke-width="1.2" style="fill:var(--dg-note-f);stroke:var(--dg-note-s)"/>
<text x="120" y="317" text-anchor="middle" font-size="12">timelocks:</text>
<text x="120" y="332" text-anchor="middle" font-size="12">NST upgrade 48h</text>
<text x="120" y="347" text-anchor="middle" font-size="12">SAFT implementation 48h</text>
<text x="120" y="362" text-anchor="middle" font-size="12">public sale address 24h</text>
<rect x="250" y="150" width="240" height="170" rx="6" stroke-width="1.2" style="fill:var(--dg-chain-f);stroke:var(--dg-chain-s)"/>
<text x="370" y="186" text-anchor="middle" font-weight="bold" font-size="13">NSTToken</text>
<text x="370" y="202" text-anchor="middle" font-size="12">ERC-20, 18 decimals, 1B supply</text>
<text x="370" y="217" text-anchor="middle" font-size="12">UUPS proxy</text>
<text x="370" y="232" text-anchor="middle" font-size="12">upgrade: propose, wait 48h</text>
<text x="370" y="247" text-anchor="middle" font-size="12">blacklist, never a critical</text>
<text x="370" y="262" text-anchor="middle" font-size="12">address (treasury, team, sale)</text>
<text x="370" y="277" text-anchor="middle" font-size="12">pausable</text>
<text x="370" y="292" text-anchor="middle" font-size="12">mintAllocations(): once</text>
<circle cx="250" cy="150" r="12" style="fill:var(--dg-ink2)"/><text x="250" y="154" text-anchor="middle" font-size="12" font-weight="bold" style="fill:var(--dg-bg)">2</text>
<polyline points="220,210 250,210" stroke-width="1.3" marker-end="url(#ah-netzence-nst-01)" style="fill:none;stroke:var(--dg-ink2)"/>
<rect x="545" y="150" width="320" height="462" rx="6" stroke-width="1.2" stroke-dasharray="6 4" style="fill:var(--dg-chain-f);stroke:var(--dg-chain-s)"/>
<text x="705" y="170" font-size="13" text-anchor="middle" font-weight="bold">Distribution (holds all 1B)</text>
<text x="705" y="186" font-size="11" text-anchor="middle" style="fill:var(--dg-muted)">releaseTokens(category) · max 4 quarters per call</text>
<polyline points="490,235 545,235" stroke-width="1.3" marker-end="url(#ah-netzence-nst-01)" style="fill:none;stroke:var(--dg-ink2)"/>
<text x="517" y="228" text-anchor="middle" font-size="11.5" style="fill:var(--dg-ink2)">1B</text>
<circle cx="545" cy="150" r="12" style="fill:var(--dg-ink2)"/><text x="545" y="154" text-anchor="middle" font-size="12" font-weight="bold" style="fill:var(--dg-bg)">3</text>
<rect x="560" y="200" width="290" height="72" rx="6" stroke-width="1.2" style="fill:var(--dg-chain-f);stroke:var(--dg-chain-s)"/>
<text x="705" y="224.5" text-anchor="middle" font-weight="bold" font-size="13">Treasury · 400M</text>
<text x="705" y="240.5" text-anchor="middle" font-size="12">12 quarterly unlocks, no cliff</text>
<text x="705" y="255.5" text-anchor="middle" font-size="12">33.3M each</text>
<rect x="560" y="282" width="290" height="72" rx="6" stroke-width="1.2" style="fill:var(--dg-chain-f);stroke:var(--dg-chain-s)"/>
<text x="705" y="306.5" text-anchor="middle" font-weight="bold" font-size="13">Project Development · 150M</text>
<text x="705" y="322.5" text-anchor="middle" font-size="12">20 quarterly unlocks</text>
<text x="705" y="337.5" text-anchor="middle" font-size="12">7.5M each</text>
<rect x="560" y="364" width="290" height="72" rx="6" stroke-width="1.2" style="fill:var(--dg-chain-f);stroke:var(--dg-chain-s)"/>
<text x="705" y="388.5" text-anchor="middle" font-weight="bold" font-size="13">Private Sale · 250M</text>
<text x="705" y="404.5" text-anchor="middle" font-size="12">125M at start, then 1-year cliff,</text>
<text x="705" y="419.5" text-anchor="middle" font-size="12">8 quarterly unlocks of 15.625M</text>
<rect x="560" y="446" width="290" height="72" rx="6" stroke-width="1.2" style="fill:var(--dg-chain-f);stroke:var(--dg-chain-s)"/>
<text x="705" y="470.5" text-anchor="middle" font-weight="bold" font-size="13">Team · 50M</text>
<text x="705" y="486.5" text-anchor="middle" font-size="12">6-month cliff, then</text>
<text x="705" y="501.5" text-anchor="middle" font-size="12">6 quarterly unlocks of 8.33M</text>
<rect x="560" y="528" width="290" height="72" rx="6" stroke-width="1.2" style="fill:var(--dg-chain-f);stroke:var(--dg-chain-s)"/>
<text x="705" y="552.5" text-anchor="middle" font-weight="bold" font-size="13">Public Sale · 150M</text>
<text x="705" y="568.5" text-anchor="middle" font-size="12">all at once, admin only, to an</text>
<text x="705" y="583.5" text-anchor="middle" font-size="12">address that waited 24h</text>
<rect x="915" y="200" width="270" height="100" rx="6" stroke-width="1.2" style="fill:var(--dg-user-f);stroke:var(--dg-user-s)"/>
<text x="1050" y="223.5" text-anchor="middle" font-weight="bold" font-size="13">Treasury wallet</text>
<text x="1050" y="239.5" text-anchor="middle" font-size="12">multisig in production</text>
<text x="1050" y="254.5" text-anchor="middle" font-size="12">TREASURY_ROLE</text>
<text x="1050" y="269.5" text-anchor="middle" font-size="12">gets Treasury, Project Dev</text>
<text x="1050" y="284.5" text-anchor="middle" font-size="12">and Private Sale releases</text>
<circle cx="915" cy="200" r="12" style="fill:var(--dg-ink2)"/><text x="915" y="204" text-anchor="middle" font-size="12" font-weight="bold" style="fill:var(--dg-bg)">4</text>
<polyline points="850,236 915,236" stroke-width="1.3" marker-end="url(#ah-netzence-nst-01)" style="fill:none;stroke:var(--dg-ink2)"/>
<polyline points="850,318 885,318 885,262 915,262" stroke-width="1.3" marker-end="url(#ah-netzence-nst-01)" style="fill:none;stroke:var(--dg-ink2)"/>
<polyline points="850,400 897,400 897,288 915,288" stroke-width="1.3" marker-end="url(#ah-netzence-nst-01)" style="fill:none;stroke:var(--dg-ink2)"/>
<rect x="915" y="450" width="270" height="56" rx="6" stroke-width="1.2" style="fill:var(--dg-user-f);stroke:var(--dg-user-s)"/>
<text x="1050" y="474" text-anchor="middle" font-weight="bold" font-size="13">Team wallet</text>
<text x="1050" y="490" text-anchor="middle" font-size="12">TEAM_ROLE</text>
<polyline points="850,482 915,482" stroke-width="1.3" marker-end="url(#ah-netzence-nst-01)" style="fill:none;stroke:var(--dg-ink2)"/>
<rect x="915" y="540" width="270" height="110" rx="6" stroke-width="1.2" style="fill:var(--dg-chain-f);stroke:var(--dg-chain-s)"/>
<text x="1050" y="568.5" text-anchor="middle" font-weight="bold" font-size="13">PublicSale</text>
<text x="1050" y="584.5" text-anchor="middle" font-size="12">$0.25 per NST</text>
<text x="1050" y="599.5" text-anchor="middle" font-size="12">stablecoins, or tokens priced</text>
<text x="1050" y="614.5" text-anchor="middle" font-size="12">by Chainlink</text>
<text x="1050" y="629.5" text-anchor="middle" font-size="12">signed terms before buying</text>
<circle cx="915" cy="540" r="12" style="fill:var(--dg-ink2)"/><text x="915" y="544" text-anchor="middle" font-size="12" font-weight="bold" style="fill:var(--dg-bg)">5</text>
<polyline points="850,564 915,564" stroke-width="1.3" marker-end="url(#ah-netzence-nst-01)" style="fill:none;stroke:var(--dg-ink2)"/>
<rect x="915" y="720" width="270" height="110" rx="6" stroke-width="1.2" style="fill:var(--dg-chain-f);stroke:var(--dg-chain-s)"/>
<text x="1050" y="756" text-anchor="middle" font-weight="bold" font-size="13">SAFTFactory (UUPS proxy)</text>
<text x="1050" y="772" text-anchor="middle" font-size="12">one SAFT clone per investor</text>
<text x="1050" y="787" text-anchor="middle" font-size="12">max 10 per rolling 24h</text>
<text x="1050" y="802" text-anchor="middle" font-size="12">new implementation: wait 48h</text>
<circle cx="915" cy="720" r="12" style="fill:var(--dg-ink2)"/><text x="915" y="724" text-anchor="middle" font-size="12" font-weight="bold" style="fill:var(--dg-bg)">6</text>
<polyline points="1185,280 1212,280 1212,760 1185,760" stroke-width="1.3" marker-end="url(#ah-netzence-nst-01)" style="fill:none;stroke:var(--dg-ink2)"/>
<text x="1205" y="700" text-anchor="end" font-size="11.5" style="fill:var(--dg-ink2)">NST to fund SAFTs</text>
<rect x="20" y="730" width="200" height="70" rx="6" stroke-width="1.2" style="fill:var(--dg-user-f);stroke:var(--dg-user-s)"/>
<text x="120" y="753.5" text-anchor="middle" font-weight="bold" font-size="13">Operator</text>
<text x="120" y="769.5" text-anchor="middle" font-size="12">createSAFTContract(</text>
<text x="120" y="784.5" text-anchor="middle" font-size="12">investor, NST, $)</text>
<polyline points="220,765 915,765" stroke-width="1.3" marker-end="url(#ah-netzence-nst-01)" style="fill:none;stroke:var(--dg-ink2)"/>
<text x="380" y="758" text-anchor="middle" font-size="11.5" style="fill:var(--dg-ink2)">createSAFTContract</text>
<rect x="1240" y="540" width="330" height="110" rx="6" stroke-width="1.2" style="fill:var(--dg-user-f);stroke:var(--dg-user-s)"/>
<text x="1405" y="568.5" text-anchor="middle" font-weight="bold" font-size="13">Public buyers</text>
<text x="1405" y="584.5" text-anchor="middle" font-size="12">pay with an approved token</text>
<text x="1405" y="599.5" text-anchor="middle" font-size="12">NST arrives in the same tx</text>
<text x="1405" y="614.5" text-anchor="middle" font-size="12">100 to 1M NST per purchase</text>
<text x="1405" y="629.5" text-anchor="middle" font-size="12">5 purchases per hour</text>
<polyline points="1185,595 1240,595" stroke-width="1.3" marker-end="url(#ah-netzence-nst-01)" style="fill:none;stroke:var(--dg-ink2)"/>
<polyline points="1400,540 1400,215 1185,215" stroke-width="1.3" stroke-dasharray="6 4" marker-end="url(#ah-netzence-nst-01)" style="fill:none;stroke:var(--dg-ink2)"/>
<text x="1406" y="380" text-anchor="start" font-size="11.5" style="fill:var(--dg-ink2)">payments</text>
<rect x="1240" y="720" width="330" height="110" rx="6" stroke-width="1.2" style="fill:var(--dg-chain-f);stroke:var(--dg-chain-s)"/>
<text x="1405" y="748.5" text-anchor="middle" font-weight="bold" font-size="13">SAFTContract clones</text>
<text x="1405" y="764.5" text-anchor="middle" font-size="12">one per investor, holds their NST</text>
<text x="1405" y="779.5" text-anchor="middle" font-size="12">verify wallet → sign → deposit</text>
<text x="1405" y="794.5" text-anchor="middle" font-size="12">→ vesting → claim</text>
<text x="1405" y="809.5" text-anchor="middle" font-size="12">deposit goes to the treasury</text>
<circle cx="1240" cy="720" r="12" style="fill:var(--dg-ink2)"/><text x="1240" y="724" text-anchor="middle" font-size="12" font-weight="bold" style="fill:var(--dg-bg)">7</text>
<polyline points="1185,775 1240,775" stroke-width="1.3" marker-end="url(#ah-netzence-nst-01)" style="fill:none;stroke:var(--dg-ink2)"/>
<rect x="1240" y="870" width="330" height="56" rx="6" stroke-width="1.2" style="fill:var(--dg-user-f);stroke:var(--dg-user-s)"/>
<text x="1405" y="894" text-anchor="middle" font-weight="bold" font-size="13">SAFT investors</text>
<text x="1405" y="910" text-anchor="middle" font-size="12">claim vested NST, at most every 24h</text>
<polyline points="1405,830 1405,870" stroke-width="1.3" marker-end="url(#ah-netzence-nst-01)" style="fill:none;stroke:var(--dg-ink2)"/>
<text x="20" y="950" font-size="11.5" style="fill:var(--dg-muted)">solid = token flow / call     dashed = payment</text>
</svg>
